HIERARCHY
ROOT hip
{
  OFFSET 0 0 0
  CHANNELS 6 Xposition Yposition Zposition Zrotation Yrotation Xrotation
  JOINT abdomen
  {
    OFFSET 0 20.6881 -0.73152
    CHANNELS 3 Zrotation Xrotation Yrotation
    JOINT chest
    {
      OFFSET 0 11.7043 -0.48768
      CHANNELS 3 Zrotation Xrotation Yrotation
      JOINT neck
      {
        OFFSET 0 22.1894 -2.19456
        CHANNELS 3 Zrotation Xrotation Yrotation
        JOINT head
        {
          OFFSET -0.24384 7.07133 1.2192
          CHANNELS 3 Zrotation Xrotation Yrotation
          JOINT leftEye
          {
            OFFSET 4.14528 8.04674 8.04672
            CHANNELS 3 Zrotation Xrotation Yrotation
            End Site
            {
              OFFSET 1 0 0
            }
          }
          JOINT rightEye
          {
            OFFSET -3.6576 8.04674 8.04672
            CHANNELS 3 Zrotation Xrotation Yrotation
            End Site
            {
              OFFSET 1 0 0
            }
          }
        }
      }
      JOINT rCollar
      {
        OFFSET -2.68224 19.2634 -4.8768
        CHANNELS 3 Zrotation Xrotation Yrotation
        JOINT rShldr
        {
          OFFSET -8.77824 -1.95073 1.46304
          CHANNELS 3 Zrotation Xrotation Yrotation
          JOINT rForeArm
          {
            OFFSET -28.1742 -1.7115 0.48768
            CHANNELS 3 Zrotation Xrotation Yrotation
            JOINT rHand
            {
              OFFSET -22.5879 0.773209 7.07136
              CHANNELS 3 Zrotation Xrotation Yrotation
              JOINT rThumb1
              {
                OFFSET -1.2192 -0.487915 3.41376
                CHANNELS 3 Zrotation Xrotation Yrotation
                JOINT rThumb2
                {
                  OFFSET -3.37035 -0.52449 3.41376
                  CHANNELS 3 Zrotation Xrotation Yrotation
                  End Site
                  {
                    OFFSET -1.78271 -1.18214 1.43049
                  }
                }
              }
              JOINT rIndex1
              {
                OFFSET -7.75947 0.938293 5.60832
                CHANNELS 3 Zrotation Xrotation Yrotation
                JOINT rIndex2
                {
                  OFFSET -2.54057 -0.884171 1.56538
                  CHANNELS 3 Zrotation Xrotation Yrotation
                  End Site
                  {
                    OFFSET -1.62519 -0.234802 1.16502
                  }
                }
              }
              JOINT rMid1
              {
                OFFSET -8.24714 1.18213 3.41376
                CHANNELS 3 Zrotation Xrotation Yrotation
                JOINT rMid2
                {
                  OFFSET -3.10165 -0.590103 1.0647
                  CHANNELS 3 Zrotation Xrotation Yrotation
                  End Site
                  {
                    OFFSET -2.48547 -0.328903 0.83742
                  }
                }
              }
              JOINT rRing1
              {
                OFFSET -8.82822 0.546677 1.51678
                CHANNELS 3 Zrotation Xrotation Yrotation
                JOINT rRing2
                {
                  OFFSET -2.60934 -0.819778 -0.0198488
                  CHANNELS 3 Zrotation Xrotation Yrotation
                  End Site
                  {
                    OFFSET -2.33842 -0.294052 0.168128
                  }
                }
              }
              JOINT rPinky1
              {
                OFFSET -8.27202 -0.0477905 -0.4584
                CHANNELS 3 Zrotation Xrotation Yrotation
                JOINT rPinky2
                {
                  OFFSET -1.82734 -0.647385 -0.700984
                  CHANNELS 3 Zrotation Xrotation Yrotation
                  End Site
                  {
                    OFFSET -1.69225 -0.51767 -0.607171
                  }
                }
              }
            }
          }
        }
      }
      JOINT lCollar
      {
        OFFSET 2.68224 19.2634 -4.8768
        CHANNELS 3 Zrotation Xrotation Yrotation
        JOINT lShldr
        {
          OFFSET 8.77824 -1.95073 1.46304
          CHANNELS 3 Zrotation Xrotation Yrotation
          JOINT lForeArm
          {
            OFFSET 28.1742 -1.7115 0.48768
            CHANNELS 3 Zrotation Xrotation Yrotation
            JOINT lHand
            {
              OFFSET 22.5879 0.773209 7.07136
              CHANNELS 3 Zrotation Xrotation Yrotation
              JOINT lThumb1
              {
                OFFSET 1.2192 -0.487915 3.41376
                CHANNELS 3 Zrotation Xrotation Yrotation
                JOINT lThumb2
                {
                  OFFSET 3.37035 -0.52449 3.41376
                  CHANNELS 3 Zrotation Xrotation Yrotation
                  End Site
                  {
                    OFFSET 1.78271 -1.18214 1.43049
                  }
                }
              }
              JOINT lIndex1
              {
                OFFSET 7.75947 0.938293 5.60832
                CHANNELS 3 Zrotation Xrotation Yrotation
                JOINT lIndex2
                {
                  OFFSET 2.54057 -0.884171 1.56538
                  CHANNELS 3 Zrotation Xrotation Yrotation
                  End Site
                  {
                    OFFSET 1.62519 -0.234802 1.16502
                  }
                }
              }
              JOINT lMid1
              {
                OFFSET 8.24714 1.18213 3.41376
                CHANNELS 3 Zrotation Xrotation Yrotation
                JOINT lMid2
                {
                  OFFSET 3.10165 -0.590103 1.0647
                  CHANNELS 3 Zrotation Xrotation Yrotation
                  End Site
                  {
                    OFFSET 2.48547 -0.328903 0.83742
                  }
                }
              }
              JOINT lRing1
              {
                OFFSET 8.82822 0.546677 1.51678
                CHANNELS 3 Zrotation Xrotation Yrotation
                JOINT lRing2
                {
                  OFFSET 2.60934 -0.819778 -0.0198488
                  CHANNELS 3 Zrotation Xrotation Yrotation
                  End Site
                  {
                    OFFSET 2.33842 -0.294052 0.168128
                  }
                }
              }
              JOINT lPinky1
              {
                OFFSET 8.27202 -0.0477905 -0.4584
                CHANNELS 3 Zrotation Xrotation Yrotation
                JOINT lPinky2
                {
                  OFFSET 1.82734 -0.647385 -0.700984
                  CHANNELS 3 Zrotation Xrotation Yrotation
                  End Site
                  {
                    OFFSET 1.69225 -0.51767 -0.607171
                  }
                }
              }
            }
          }
        }
      }
    }
  }
  JOINT rButtock
  {
    OFFSET -8.77824 4.35084 1.2192
    CHANNELS 3 Zrotation Xrotation Yrotation
    JOINT rThigh
    {
      OFFSET 0 -1.70687 -2.19456
      CHANNELS 3 Zrotation Xrotation Yrotation
      JOINT rShin
      {
        OFFSET 0 -36.8199 0.73152
        CHANNELS 3 Zrotation Xrotation Yrotation
        JOINT rFoot
        {
          OFFSET 0.73152 -45.1104 -5.12064
          CHANNELS 3 Zrotation Xrotation Yrotation
          End Site
          {
            OFFSET -1.1221 -3.69964 12.103
          }
        }
      }
    }
  }
  JOINT lButtock
  {
    OFFSET 8.77824 4.35084 1.2192
    CHANNELS 3 Zrotation Xrotation Yrotation
    JOINT lThigh
    {
      OFFSET 0 -1.70687 -2.19456
      CHANNELS 3 Zrotation Xrotation Yrotation
      JOINT lShin
      {
        OFFSET 0 -36.8199 0.73152
        CHANNELS 3 Zrotation Xrotation Yrotation
        JOINT lFoot
        {
          OFFSET -0.73152 -45.1104 -5.12064
          CHANNELS 3 Zrotation Xrotation Yrotation
          End Site
          {
            OFFSET 1.1221 -3.69964 12.103
          }
        }
      }
    }
  }
}
MOTION
Frames:	4
Frame Time:	0.03333
-9.007394453510642 68.30779910087585 81.2772517092526 -9.964653015136719 2.7127954959869385 7.846043586730957 -0.8421793580055237 6.6246657371521 7.812867641448975 1.9179658889770508 -8.000589370727539 1.5126105546951294 -4.687044143676758 14.225513458251953 0.4523533284664154 8.13347053527832 -17.262168884277344 1.3920665979385376 -1.7894407510757446 1.2719600200653076 0.27414825558662415 -1.546453833580017 0.45518603920936584 -2.225222110748291 2.8874008655548096 -0.8502071499824524 0.618684709072113 29.391206741333008 56.297607421875 48.606990814208984 -28.1004695892334 -30.000818252563477 67.73957824707031 -2.779820442199707 -39.50678634643555 -6.858115196228027 -0.17221346497535706 -0.0127413896843791 0.7646732926368713 -2.2000181674957275 1.2606192827224731 1.0845335721969604 0.15345412492752075 1.4379404783248901 -0.6891313791275024 7.61962366104126 6.300299644470215 0.6880534291267395 -1.6053779125213623 0.45910486578941345 1.106574296951294 2.3022663593292236 0.5971311926841736 1.666772723197937 1.2594454288482666 0.7252746224403381 -0.4737482964992523 12.33341121673584 2.057939291000366 -0.08520221710205078 0.4950881004333496 0.3643530309200287 0.0713629201054573 3.1922645568847656 -1.5240777730941772 0.08867549151182175 1.4642915725708008 2.689059019088745 0.009810058400034904 -30.194406509399414 3.997987747192383 -88.82318115234375 27.991127014160156 -38.8319206237793 -79.94017791748047 11.122273445129395 -63.82392883300781 15.715660095214844 1.748811960220337 -0.1413491815328598 -2.9551286697387695 -0.18623298406600952 1.2745546102523804 -0.025056079030036926 1.7686370611190796 0.07865234464406967 -1.5038245916366577 -7.887918472290039 5.752499580383301 -0.13811549544334412 0.8996188044548035 1.1561882495880127 -0.4379631578922272 -2.5875515937805176 2.026566743850708 0.44818946719169617 -0.3552892208099365 0.24490204453468323 2.6478264331817627 -11.369102478027344 0.11874067038297653 -0.11048731207847595 -0.6061590313911438 -1.0987019538879395 0.3085862696170807 -2.1806557178497314 -1.2055070400238037 0.6523883938789368 -0.3648219108581543 -1.139771580696106 1.4390448331832886 4.313143730163574 -3.8526721000671387 -7.123517036437988 0.5360575914382935 52.85420608520508 0.08180280774831772 -7.350338459014893 -6.247646808624268 -20.512523651123047 0.21726706624031067 1.0044357776641846 0.4317360520362854 28.033048629760742 -60.778961181640625 33.86083221435547 1.1414004564285278 50.06428909301758 -2.013594388961792 -1.459544062614441 5.976964950561523 16.978769302368164
-9.663120796903968 68.88530254364014 84.49426563456655 -8.457934379577637 4.426477432250977 6.501495361328125 -2.3229687213897705 6.574829578399658 7.213258266448975 2.0203890800476074 -8.290678977966309 1.9922934770584106 -5.521505832672119 13.446061134338379 0.12793563306331635 8.228294372558594 -17.779638290405273 0.9922657012939453 -1.2787343263626099 1.3818981647491455 0.16438274085521698 -1.8312839269638062 0.6188387870788574 -2.2372896671295166 2.85903263092041 -0.46912842988967896 0.8459305763244629 28.84333038330078 56.289031982421875 51.055118560791016 -27.686965942382812 -28.722576141357422 65.88578033447266 -1.8225252628326416 -37.0777473449707 -6.0200419425964355 -0.6891940236091614 -0.02978883497416973 0.7500244975090027 -2.085524320602417 1.7693276405334473 0.9339781403541565 -0.18416038155555725 1.7395720481872559 -0.11424721032381058 7.593288421630859 6.333314895629883 0.9109362959861755 -1.3975671529769897 0.7516162395477295 0.7825433015823364 2.3958077430725098 0.7131224274635315 1.948509693145752 1.3564908504486084 0.8890759348869324 -0.5411130785942078 12.29780387878418 2.5234169960021973 -0.5475096702575684 0.49828749895095825 0.009200788103044033 -0.08090928196907043 3.355181932449341 -2.0141732692718506 -0.2535705864429474 1.1779758930206299 2.50463604927063 -0.5239501595497131 -31.220365524291992 6.940312385559082 -89.57925415039062 27.73640251159668 -39.97970962524414 -82.3052749633789 13.280411720275879 -66.8873519897461 18.273616790771484 1.874467372894287 -0.4706822335720062 -3.0497548580169678 -0.485629141330719 1.1450051069259644 -0.4786759614944458 1.4484363794326782 -0.1141035184264183 -1.0267717838287354 -7.91363000869751 5.418956756591797 -0.3775468170642853 0.8154732584953308 0.9405719637870789 -1.0704388618469238 -2.289112091064453 1.9631304740905762 0.1763024777173996 0.0008271665428765118 0.40680280327796936 2.533017873764038 -11.379778861999512 0.5133980512619019 -0.08012943714857101 -0.20076332986354828 -0.9409552812576294 -0.20187973976135254 -1.7531753778457642 -1.1157760620117188 0.902934730052948 -0.07279025763273239 -0.608555793762207 1.218424677848816 2.701746940612793 -6.166812896728516 -7.573439598083496 0.35306572914123535 57.408050537109375 -0.012307417578995228 -6.612753868103027 -3.962315082550049 -18.55077362060547 0.5441610813140869 1.4351475238800049 0.4554135203361511 23.427167892456055 -60.880252838134766 30.77377700805664 1.2538256645202637 51.93698501586914 -2.4009640216827393 -0.01584392972290516 3.492504119873047 18.409870147705078
-10.495886346325278 69.82570290565491 87.33920669183135 -7.245179176330566 2.1819067001342773 5.338188171386719 -2.8636209964752197 6.582304954528809 6.498857021331787 2.0409395694732666 -8.24587345123291 2.381197452545166 -5.914309501647949 12.811148643493652 -0.0758829340338707 8.170894622802734 -17.880773544311523 0.7231215238571167 -0.7754415273666382 1.3460861444473267 0.08897294104099274 -2.009256362915039 0.5690653920173645 -2.2516822814941406 2.700129747390747 -0.41633254289627075 1.0579068660736084 31.274423599243164 57.63237380981445 49.270565032958984 -27.432031631469727 -27.239240646362305 63.16098403930664 -0.9264833331108093 -36.50871658325195 -5.326307773590088 -0.8814051151275635 -0.17438475787639618 0.6673654913902283 -1.7941420078277588 1.6972955465316772 0.9208387136459351 -0.1910480111837387 1.8673146963119507 0.2720240354537964 7.397500038146973 6.348845958709717 1.3131060600280762 -1.0907057523727417 0.9967091679573059 0.6404560804367065 2.5143792629241943 0.8520007133483887 1.925952672958374 1.2922574281692505 0.8031646609306335 -0.47025609016418457 12.052983283996582 2.649655342102051 -0.8213863372802734 0.3098395764827728 -0.2824613153934479 -0.11662424355745316 3.3972415924072266 -2.2560906410217285 -0.5617170929908752 0.8528666496276855 2.2115347385406494 -0.7417333126068115 -33.39982223510742 9.392706871032715 -89.83281707763672 27.47298812866211 -39.13957595825195 -81.63792419433594 12.870678901672363 -66.08397674560547 17.96291732788086 1.8919557332992554 -0.4098908603191376 -3.0063748359680176 -0.5860759019851685 0.985641360282898 -0.5126912593841553 1.2164255380630493 -0.2506186068058014 -0.5058600306510925 -7.739110946655273 5.099043846130371 -0.7805514335632324 0.7667890191078186 0.6177056431770325 -1.1588034629821777 -1.8657593727111816 1.7670507431030273 -0.012590428814291954 0.33453112840652466 0.5253149271011353 2.2918543815612793 -11.440726280212402 0.8988754749298096 -0.251613050699234 0.26807546615600586 -0.7619045972824097 -0.5140271782875061 -1.340859055519104 -1.0258699655532837 1.1576738357543945 0.3787008225917816 -0.15200066566467285 1.3346432447433472 2.8703389167785645 -6.211462497711182 -7.292623519897461 0.20275770127773285 59.12931442260742 -0.19967781007289886 -6.575905799865723 -2.8326966762542725 -17.72976303100586 0.7857824563980103 1.6615471839904785 0.5914100408554077 20.450408935546875 -61.52354049682617 28.904949188232422 1.4389731884002686 54.13018035888672 -2.5534446239471436 1.0052725076675415 2.1845486164093018 18.16921043395996
-11.315259849652648 71.24087810516357 90.2654835022986 -5.845623970031738 -1.782041311264038 5.097879886627197 -3.215618133544922 6.821478366851807 5.618850231170654 2.1618435382843018 -8.123846054077148 2.6213786602020264 -6.175746440887451 12.508417129516602 -0.39579978585243225 8.318990707397461 -17.952932357788086 0.1968834400177002 -0.37654390931129456 1.2724082469940186 0.02954327128827572 -2.1028926372528076 0.4380606710910797 -2.2928669452667236 2.4653432369232178 -0.4043782949447632 0.9816651344299316 35.522953033447266 59.59721374511719 45.52924346923828 -27.43781852722168 -26.539596557617188 61.59201431274414 -0.38238096237182617 -37.96165084838867 -5.079037189483643 -0.7342759370803833 -0.2254309356212616 0.4522935152053833 -1.4465221166610718 1.3307147026062012 1.0389991998672485 0.030931487679481506 1.881744384765625 0.690316915512085 7.293041706085205 6.432008743286133 1.6367735862731934 -0.7600696682929993 1.143921971321106 0.637647271156311 2.449761152267456 0.9459259510040283 1.7984737157821655 1.0756802558898926 0.5336766242980957 -0.4223674237728119 11.67231273651123 2.6971166133880615 -0.9994765520095825 0.04043714329600334 -0.5209081768989563 -0.029367810115218163 3.365248441696167 -2.2347850799560547 -0.8616544008255005 0.5448347926139832 1.8614040613174438 -0.8413306474685669 -35.73994827270508 11.584912300109863 -90.07640838623047 27.337461471557617 -38.0754508972168 -80.42996978759766 11.237139701843262 -63.317447662353516 16.211828231811523 1.730660080909729 -0.2578597962856293 -2.7050838470458984 -0.5807689428329468 0.8730142712593079 -0.259538859128952 1.1619880199432373 -0.4116082191467285 0.020047545433044434 -7.538257598876953 4.905539035797119 -1.1689860820770264 0.6699810028076172 0.33770254254341125 -1.0194872617721558 -1.4962100982666016 1.5212345123291016 -0.15921460092067719 0.49794840812683105 0.6183806657791138 1.8934969902038574 -11.596271514892578 1.1224490404129028 -0.3490450382232666 0.6973998546600342 -0.445497989654541 -0.7156237363815308 -0.9210092425346375 -0.857408881187439 1.4085283279418945 0.739908754825592 0.13817153871059418 1.5787371397018433 3.062126636505127 -6.471614360809326 -7.184005260467529 -0.10412153601646423 60.564239501953125 -0.049641240388154984 -6.575374603271484 -2.469341516494751 -16.969057083129883 0.825969398021698 1.5794950723648071 0.6556870341300964 19.83672332763672 -62.43601989746094 29.248825073242188 1.688125729560852 57.21174621582031 -2.630866527557373 1.7264820337295532 1.0427335500717163 17.82196807861328
